<svg xmlns="http://www.w3.org/2000/svg" width="1200" height="164" viewBox="0 0 1200 164" role="img" aria-labelledby="title desc">
<title id="title">COMMIT: fix(proofstore): index tikv prepared manifests (#331)</title>
<desc id="desc">ryan-wong-coder/trustdb; STARS 88  ·  FORKS 4  ·  GO; ORIGINAL REPOSITORY</desc>
<defs>
  <linearGradient id="bg" x1="0" y1="0" x2="1" y2="1"><stop stop-color="#0d1424"/><stop offset="1" stop-color="#101a2f"/></linearGradient>
  <linearGradient id="accent" x1="0" y1="0" x2="0" y2="1"><stop stop-color="#38bdf8"/><stop offset="1" stop-color="#f472b6"/></linearGradient>
  <pattern id="grid" width="26" height="26" patternUnits="userSpaceOnUse"><path d="M26 0H0V26" fill="none" stroke="#16223a" stroke-width="1"/></pattern>
  <style>text{font-family:ui-monospace,SFMono-Regular,Menlo,Monaco,Consolas,"Liberation Mono",monospace}</style>
</defs>
<rect width="1200" height="164" rx="20" fill="url(#bg)"/>
<rect width="1200" height="164" rx="20" fill="url(#grid)" opacity=".48"/>
<rect x="1" y="1" width="1198" height="162" rx="19" fill="none" stroke="#22304a"/>
<rect width="8" height="164" rx="4" fill="url(#accent)"/>
<circle cx="55" cy="82" r="10" fill="#38bdf8"/>
<rect x="88" y="18" width="92.0" height="25" rx="12.5" fill="#38bdf8" opacity=".16"/>
<text x="134.0" y="35" fill="#38bdf8" font-size="11" font-weight="700" text-anchor="middle">COMMIT</text>
<text x="1162" y="34" fill="#8da0bd" font-size="11" text-anchor="end">2026-07-21 · 14:35 UTC+8</text>
<text x="88" y="76" fill="#e5edf9" font-size="23" font-weight="700">ryan-wong-coder/trustdb</text>
<text x="1162" y="72" fill="#38bdf8" font-size="12" font-weight="700" text-anchor="end">STARS 88  ·  FORKS 4  ·  GO</text>
<text x="88" y="108" fill="#8da0bd" font-size="15">fix(proofstore): index tikv prepared manifests (#331)</text>
<text x="88" y="139" fill="#38bdf8" font-size="11" font-weight="700">ORIGINAL REPOSITORY</text>
<text x="958" y="139" fill="#8da0bd" font-size="11" text-anchor="end">d758f0f  ·  main</text>
<text x="1137" y="139" fill="#38bdf8" font-size="12" font-weight="700" text-anchor="end">OPEN ACTIVITY</text>
<path d="M1148 132h12v12M1148 144l12-12" fill="none" stroke="#38bdf8" stroke-width="2" stroke-linecap="round" stroke-linejoin="round"/>
</svg>