<svg xmlns="http://www.w3.org/2000/svg" width="1200" height="130" viewBox="0 0 1200 130" role="img" aria-labelledby="title desc">
<title id="title">PR MERGED: ci: update GitHub Actions runtimes</title>
<desc id="desc">ryan-wong-coder/trustdb  ·  #202  ·  merged</desc>
<defs>
  <linearGradient id="bg" x1="0" y1="0" x2="1" y2="1"><stop stop-color="#0d1424"/><stop offset="1" stop-color="#101a2f"/></linearGradient>
  <linearGradient id="accent" x1="0" y1="0" x2="0" y2="1"><stop stop-color="#a78bfa"/><stop offset="1" stop-color="#f472b6"/></linearGradient>
  <pattern id="grid" width="26" height="26" patternUnits="userSpaceOnUse"><path d="M26 0H0V26" fill="none" stroke="#16223a" stroke-width="1"/></pattern>
  <style>text{font-family:ui-monospace,SFMono-Regular,Menlo,Monaco,Consolas,"Liberation Mono",monospace}</style>
</defs>
<rect width="1200" height="130" rx="18" fill="url(#bg)"/>
<rect width="1200" height="130" rx="18" fill="url(#grid)" opacity=".48"/>
<rect x="1" y="1" width="1198" height="128" rx="17" fill="none" stroke="#22304a"/>
<rect width="7" height="130" rx="3.5" fill="url(#accent)"/>
<rect x="49" y="56" width="18" height="18" rx="3" fill="#a78bfa" transform="rotate(45 58 65)"/>
<rect x="91" y="25" width="92.0" height="27" rx="13.5" fill="#a78bfa" opacity=".16"/>
<text x="137.0" y="43" fill="#a78bfa" font-size="11" font-weight="700" text-anchor="middle">PR MERGED</text>
<text x="91" y="81" fill="#e5edf9" font-size="18" font-weight="700">ci: update GitHub Actions runtimes</text>
<text x="91" y="105" fill="#8da0bd" font-size="12">ryan-wong-coder/trustdb  ·  #202  ·  merged</text>
<text x="1162" y="34" fill="#8da0bd" font-size="11" text-anchor="end">2026-07-17 · 01:27 UTC+8</text>
<text x="1137" y="101" fill="#a78bfa" font-size="12" font-weight="700" text-anchor="end">OPEN</text>
<path d="M1148 94h12v12M1148 106l12-12" fill="none" stroke="#a78bfa" stroke-width="2" stroke-linecap="round" stroke-linejoin="round"/>
</svg>