<svg xmlns="http://www.w3.org/2000/svg" width="1200" height="164" viewBox="0 0 1200 164" role="img" aria-labelledby="title desc">
<title id="title">PR CLOSED: Clarify pending CRDT replica setup</title>
<desc id="desc">ryan-wong-coder/Netcatty; UPSTREAM STARS 3.7K  ·  FORKS 347  ·  TYPESCRIPT; FORK  ·  UPSTREAM // binaricat/Netcatty</desc>
<defs>
  <linearGradient id="bg" x1="0" y1="0" x2="1" y2="1"><stop stop-color="#0d1424"/><stop offset="1" stop-color="#101a2f"/></linearGradient>
  <linearGradient id="accent" x1="0" y1="0" x2="0" y2="1"><stop stop-color="#a78bfa"/><stop offset="1" stop-color="#f472b6"/></linearGradient>
  <pattern id="grid" width="26" height="26" patternUnits="userSpaceOnUse"><path d="M26 0H0V26" fill="none" stroke="#16223a" stroke-width="1"/></pattern>
  <style>text{font-family:ui-monospace,SFMono-Regular,Menlo,Monaco,Consolas,"Liberation Mono",monospace}</style>
</defs>
<rect width="1200" height="164" rx="20" fill="url(#bg)"/>
<rect width="1200" height="164" rx="20" fill="url(#grid)" opacity=".48"/>
<rect x="1" y="1" width="1198" height="162" rx="19" fill="none" stroke="#22304a"/>
<rect width="8" height="164" rx="4" fill="url(#accent)"/>
<rect x="46" y="73" width="18" height="18" rx="3" fill="#a78bfa" transform="rotate(45 55 82)"/>
<rect x="88" y="18" width="92.0" height="25" rx="12.5" fill="#a78bfa" opacity=".16"/>
<text x="134.0" y="35" fill="#a78bfa" font-size="11" font-weight="700" text-anchor="middle">PR CLOSED</text>
<text x="1162" y="34" fill="#8da0bd" font-size="11" text-anchor="end">2026-07-19 · 21:23 UTC+8</text>
<text x="88" y="76" fill="#e5edf9" font-size="23" font-weight="700">ryan-wong-coder/Netcatty</text>
<text x="1162" y="72" fill="#a78bfa" font-size="12" font-weight="700" text-anchor="end">UPSTREAM STARS 3.7K  ·  FORKS 347  ·  TYPESCRIPT</text>
<text x="88" y="108" fill="#8da0bd" font-size="15">Clarify pending CRDT replica setup</text>
<text x="88" y="139" fill="#a78bfa" font-size="11" font-weight="700">FORK  ·  UPSTREAM // binaricat/Netcatty</text>
<text x="958" y="139" fill="#8da0bd" font-size="11" text-anchor="end">#1  ·  closed</text>
<text x="1137" y="139" fill="#a78bfa" font-size="12" font-weight="700" text-anchor="end">OPEN ACTIVITY</text>
<path d="M1148 132h12v12M1148 144l12-12" fill="none" stroke="#a78bfa" stroke-width="2" stroke-linecap="round" stroke-linejoin="round"/>
</svg>