<svg xmlns="http://www.w3.org/2000/svg" width="1200" height="164" viewBox="0 0 1200 164" role="img" aria-labelledby="title desc">
<title id="title">PR MERGED: feat(crypto): add versioned key descriptors</title>
<desc id="desc">wowtrust/trustdb; STARS 89  ·  FORKS 5  ·  GO; ORIGINAL REPOSITORY</desc>
<defs>
  <linearGradient id="bg" x1="0" y1="0" x2="1" y2="1"><stop stop-color="#ffffff"/><stop offset="1" stop-color="#eff6ff"/></linearGradient>
  <linearGradient id="accent" x1="0" y1="0" x2="0" y2="1"><stop stop-color="#7c3aed"/><stop offset="1" stop-color="#db2777"/></linearGradient>
  <pattern id="grid" width="26" height="26" patternUnits="userSpaceOnUse"><path d="M26 0H0V26" fill="none" stroke="#e8eef7" stroke-width="1"/></pattern>
  <style>text{font-family:ui-monospace,SFMono-Regular,Menlo,Monaco,Consolas,"Liberation Mono",monospace}</style>
</defs>
<rect width="1200" height="164" rx="20" fill="url(#bg)"/>
<rect width="1200" height="164" rx="20" fill="url(#grid)" opacity=".48"/>
<rect x="1" y="1" width="1198" height="162" rx="19" fill="none" stroke="#d8e2f1"/>
<rect width="8" height="164" rx="4" fill="url(#accent)"/>
<rect x="46" y="73" width="18" height="18" rx="3" fill="#7c3aed" transform="rotate(45 55 82)"/>
<rect x="88" y="18" width="92.0" height="25" rx="12.5" fill="#7c3aed" opacity=".16"/>
<text x="134.0" y="35" fill="#7c3aed" font-size="11" font-weight="700" text-anchor="middle">PR MERGED</text>
<text x="1162" y="34" fill="#60708a" font-size="11" text-anchor="end">2026-07-24 · 04:53 UTC+8</text>
<text x="88" y="76" fill="#172033" font-size="23" font-weight="700">wowtrust/trustdb</text>
<text x="1162" y="72" fill="#7c3aed" font-size="12" font-weight="700" text-anchor="end">STARS 89  ·  FORKS 5  ·  GO</text>
<text x="88" y="108" fill="#60708a" font-size="15">feat(crypto): add versioned key descriptors</text>
<text x="88" y="139" fill="#7c3aed" font-size="11" font-weight="700">ORIGINAL REPOSITORY</text>
<text x="958" y="139" fill="#60708a" font-size="11" text-anchor="end">#550  ·  merged</text>
<text x="1137" y="139" fill="#7c3aed" font-size="12" font-weight="700" text-anchor="end">OPEN ACTIVITY</text>
<path d="M1148 132h12v12M1148 144l12-12" fill="none" stroke="#7c3aed" stroke-width="2" stroke-linecap="round" stroke-linejoin="round"/>
</svg>