<svg xmlns="http://www.w3.org/2000/svg" width="1200" height="936" viewBox="0 0 1200 936" role="img" aria-labelledby="title desc"><title id="title">ryan-wong-coder recent GitHub activity timeline</title><desc id="desc">A chronological timeline of recent public commits, pull requests, and issues.</desc><defs><linearGradient id="bg" x1="0" y1="0" x2="1" y2="1"><stop stop-color="#070b14"/><stop offset="1" stop-color="#101a2f"/></linearGradient><pattern id="grid" width="28" height="28" patternUnits="userSpaceOnUse"><path d="M28 0H0V28" fill="none" stroke="#16223a" stroke-width="1"/></pattern><style>text{font-family:ui-monospace,SFMono-Regular,Menlo,Monaco,Consolas,"Liberation Mono",monospace}</style></defs><rect width="1200" height="936" rx="22" fill="url(#bg)"/><rect width="1200" height="936" rx="22" fill="url(#grid)" opacity=".62"/><rect x="1" y="1" width="1198" height="934" rx="21" fill="none" stroke="#22304a"/><text x="34" y="43" fill="#38bdf8" font-size="17" font-weight="700" text-anchor="start">RECENT ACTIVITY // UTC+8</text><text x="1166" y="43" fill="#8da0bd" font-size="12" font-weight="400" text-anchor="end">REFRESHED 2026-07-17 01:47 UTC</text><circle cx="40" cy="70" r="5" fill="#38bdf8"/><text x="52" y="74" fill="#8da0bd" font-size="11" font-weight="700" text-anchor="start">COMMIT</text><circle cx="158" cy="70" r="5" fill="#a78bfa"/><text x="170" y="74" fill="#8da0bd" font-size="11" font-weight="700" text-anchor="start">PULL REQUEST</text><circle cx="313" cy="70" r="5" fill="#fb923c"/><text x="325" y="74" fill="#8da0bd" font-size="11" font-weight="700" text-anchor="start">ISSUE</text><line x1="190" y1="112" x2="190" y2="850" stroke="#22304a" stroke-width="3"/><text x="34" y="107" fill="#e5edf9" font-size="13" font-weight="700" text-anchor="start">JUL 17</text><text x="34" y="128" fill="#8da0bd" font-size="11" font-weight="400" text-anchor="start">09:41</text><rect x="183" y="105" width="14" height="14" rx="2" fill="#a78bfa" stroke="#070b14" stroke-width="3" transform="rotate(45 190 112)"/><rect x="224" y="90" width="92.0" height="25" rx="12.5" fill="#a78bfa" opacity=".16"/><text x="270.0" y="107" fill="#a78bfa" font-size="10" font-weight="700" text-anchor="middle">PR MERGED</text><text x="334" y="107" fill="#e5edf9" font-size="15" font-weight="700" text-anchor="start">feat(sync): integrate convergent multi-device sync</text><text x="224" y="134" fill="#8da0bd" font-size="11" font-weight="400" text-anchor="start">binaricat/Netcatty  ·  #2259  ·  merged</text><line x1="224" y1="151" x2="1164" y2="151" stroke="#22304a"/><text x="34" y="189" fill="#e5edf9" font-size="13" font-weight="700" text-anchor="start">JUL 17</text><text x="34" y="210" fill="#8da0bd" font-size="11" font-weight="400" text-anchor="start">04:35</text><circle cx="190" cy="194" r="8" fill="#38bdf8" stroke="#070b14" stroke-width="4"/><rect x="224" y="172" width="92.0" height="25" rx="12.5" fill="#38bdf8" opacity=".16"/><text x="270.0" y="189" fill="#38bdf8" font-size="10" font-weight="700" text-anchor="middle">COMMIT</text><text x="334" y="189" fill="#e5edf9" font-size="15" font-weight="700" text-anchor="start">fix(sync): seed legacy downgrade baselines</text><text x="224" y="216" fill="#8da0bd" font-size="11" font-weight="400" text-anchor="start">ryan-wong-coder/Netcatty  ·  702f0d5  ·  feat/convergent-sync-integration</text><line x1="224" y1="233" x2="1164" y2="233" stroke="#22304a"/><text x="34" y="271" fill="#e5edf9" font-size="13" font-weight="700" text-anchor="start">JUL 17</text><text x="34" y="292" fill="#8da0bd" font-size="11" font-weight="400" text-anchor="start">04:16</text><circle cx="190" cy="276" r="8" fill="#38bdf8" stroke="#070b14" stroke-width="4"/><rect x="224" y="254" width="92.0" height="25" rx="12.5" fill="#38bdf8" opacity=".16"/><text x="270.0" y="271" fill="#38bdf8" font-size="10" font-weight="700" text-anchor="middle">COMMIT</text><text x="334" y="271" fill="#e5edf9" font-size="15" font-weight="700" text-anchor="start">fix(sync): open empty convergent startup gate</text><text x="224" y="298" fill="#8da0bd" font-size="11" font-weight="400" text-anchor="start">ryan-wong-coder/Netcatty  ·  b951ca8  ·  feat/convergent-sync-integration</text><line x1="224" y1="315" x2="1164" y2="315" stroke="#22304a"/><text x="34" y="353" fill="#e5edf9" font-size="13" font-weight="700" text-anchor="start">JUL 17</text><text x="34" y="374" fill="#8da0bd" font-size="11" font-weight="400" text-anchor="start">04:02</text><circle cx="190" cy="358" r="8" fill="#38bdf8" stroke="#070b14" stroke-width="4"/><rect x="224" y="336" width="92.0" height="25" rx="12.5" fill="#38bdf8" opacity=".16"/><text x="270.0" y="353" fill="#38bdf8" font-size="10" font-weight="700" text-anchor="middle">COMMIT</text><text x="334" y="353" fill="#e5edf9" font-size="15" font-weight="700" text-anchor="start">fix(sync): commit merged replicas after apply</text><text x="224" y="380" fill="#8da0bd" font-size="11" font-weight="400" text-anchor="start">ryan-wong-coder/Netcatty  ·  67e0e06  ·  feat/convergent-sync-integration</text><line x1="224" y1="397" x2="1164" y2="397" stroke="#22304a"/><text x="34" y="435" fill="#e5edf9" font-size="13" font-weight="700" text-anchor="start">JUL 17</text><text x="34" y="456" fill="#8da0bd" font-size="11" font-weight="400" text-anchor="start">03:42</text><circle cx="190" cy="440" r="8" fill="#38bdf8" stroke="#070b14" stroke-width="4"/><rect x="224" y="418" width="92.0" height="25" rx="12.5" fill="#38bdf8" opacity=".16"/><text x="270.0" y="435" fill="#38bdf8" font-size="10" font-weight="700" text-anchor="middle">COMMIT</text><text x="334" y="435" fill="#e5edf9" font-size="15" font-weight="700" text-anchor="start">fix(sync): preserve convergent recovery safeguards</text><text x="224" y="462" fill="#8da0bd" font-size="11" font-weight="400" text-anchor="start">ryan-wong-coder/Netcatty  ·  30efa8e  ·  feat/convergent-sync-integration</text><line x1="224" y1="479" x2="1164" y2="479" stroke="#22304a"/><text x="34" y="517" fill="#e5edf9" font-size="13" font-weight="700" text-anchor="start">JUL 17</text><text x="34" y="538" fill="#8da0bd" font-size="11" font-weight="400" text-anchor="start">03:26</text><circle cx="190" cy="522" r="8" fill="#38bdf8" stroke="#070b14" stroke-width="4"/><rect x="224" y="500" width="92.0" height="25" rx="12.5" fill="#38bdf8" opacity=".16"/><text x="270.0" y="517" fill="#38bdf8" font-size="10" font-weight="700" text-anchor="middle">COMMIT</text><text x="334" y="517" fill="#e5edf9" font-size="15" font-weight="700" text-anchor="start">fix(sync): avoid no-op convergent writes</text><text x="224" y="544" fill="#8da0bd" font-size="11" font-weight="400" text-anchor="start">ryan-wong-coder/Netcatty  ·  25c4f5c  ·  feat/convergent-sync-integration</text><line x1="224" y1="561" x2="1164" y2="561" stroke="#22304a"/><text x="34" y="599" fill="#e5edf9" font-size="13" font-weight="700" text-anchor="start">JUL 17</text><text x="34" y="620" fill="#8da0bd" font-size="11" font-weight="400" text-anchor="start">01:27</text><rect x="183" y="597" width="14" height="14" rx="2" fill="#a78bfa" stroke="#070b14" stroke-width="3" transform="rotate(45 190 604)"/><rect x="224" y="582" width="92.0" height="25" rx="12.5" fill="#a78bfa" opacity=".16"/><text x="270.0" y="599" fill="#a78bfa" font-size="10" font-weight="700" text-anchor="middle">PR MERGED</text><text x="334" y="599" fill="#e5edf9" font-size="15" font-weight="700" text-anchor="start">ci: update GitHub Actions runtimes</text><text x="224" y="626" fill="#8da0bd" font-size="11" font-weight="400" text-anchor="start">ryan-wong-coder/trustdb  ·  #202  ·  merged</text><line x1="224" y1="643" x2="1164" y2="643" stroke="#22304a"/><text x="34" y="681" fill="#e5edf9" font-size="13" font-weight="700" text-anchor="start">JUL 17</text><text x="34" y="702" fill="#8da0bd" font-size="11" font-weight="400" text-anchor="start">01:20</text><rect x="183" y="679" width="14" height="14" rx="2" fill="#a78bfa" stroke="#070b14" stroke-width="3" transform="rotate(45 190 686)"/><rect x="224" y="664" width="92.0" height="25" rx="12.5" fill="#a78bfa" opacity=".16"/><text x="270.0" y="681" fill="#a78bfa" font-size="10" font-weight="700" text-anchor="middle">PR MERGED</text><text x="334" y="681" fill="#e5edf9" font-size="15" font-weight="700" text-anchor="start">fix: update vulnerable Go dependencies</text><text x="224" y="708" fill="#8da0bd" font-size="11" font-weight="400" text-anchor="start">ryan-wong-coder/trustdb  ·  #201  ·  merged</text><line x1="224" y1="725" x2="1164" y2="725" stroke="#22304a"/><text x="34" y="763" fill="#e5edf9" font-size="13" font-weight="700" text-anchor="start">JUL 16</text><text x="34" y="784" fill="#8da0bd" font-size="11" font-weight="400" text-anchor="start">23:41</text><rect x="183" y="761" width="14" height="14" rx="2" fill="#a78bfa" stroke="#070b14" stroke-width="3" transform="rotate(45 190 768)"/><rect x="224" y="746" width="92.0" height="25" rx="12.5" fill="#a78bfa" opacity=".16"/><text x="270.0" y="763" fill="#a78bfa" font-size="10" font-weight="700" text-anchor="middle">PR MERGED</text><text x="334" y="763" fill="#e5edf9" font-size="15" font-weight="700" text-anchor="start">fix: constrain filesystem access</text><text x="224" y="790" fill="#8da0bd" font-size="11" font-weight="400" text-anchor="start">ryan-wong-coder/trustdb  ·  #200  ·  merged</text><line x1="224" y1="807" x2="1164" y2="807" stroke="#22304a"/><text x="34" y="845" fill="#e5edf9" font-size="13" font-weight="700" text-anchor="start">JUL 16</text><text x="34" y="866" fill="#8da0bd" font-size="11" font-weight="400" text-anchor="start">10:30</text><rect x="183" y="843" width="14" height="14" rx="3" fill="#fb923c" stroke="#070b14" stroke-width="3"/><rect x="224" y="828" width="108.4" height="25" rx="12.5" fill="#fb923c" opacity=".16"/><text x="278.2" y="845" fill="#fb923c" font-size="10" font-weight="700" text-anchor="middle">ISSUE OPENED</text><text x="350.4" y="845" fill="#e5edf9" font-size="15" font-weight="700" text-anchor="start">[Feature] Add convergent multi-device sync with CRDT</text><text x="224" y="872" fill="#8da0bd" font-size="11" font-weight="400" text-anchor="start">binaricat/Netcatty  ·  #2245  ·  opened</text></svg>