<svg xmlns="http://www.w3.org/2000/svg" width="1200" height="650" viewBox="0 0 1200 650" role="img" aria-labelledby="title desc"><title id="title">ryan-wong-coder engineering telemetry</title><desc id="desc">Public repository, star, follower, annual contribution, language and monthly activity data generated from GitHub.</desc><defs><linearGradient id="bg" x1="0" y1="0" x2="1" y2="1"><stop stop-color="#070b14"/><stop offset="1" stop-color="#101a2f"/></linearGradient><linearGradient id="signal" x1="0" y1="0" x2="1" y2="0"><stop stop-color="#38bdf8"/><stop offset=".52" stop-color="#a78bfa"/><stop offset="1" stop-color="#f472b6"/></linearGradient><pattern id="grid" width="28" height="28" patternUnits="userSpaceOnUse"><path d="M 28 0 L 0 0 0 28" fill="none" stroke="#16223a" stroke-width="1"/></pattern><style>text{font-family:ui-monospace,SFMono-Regular,Menlo,Monaco,Consolas,"Liberation Mono",monospace}</style></defs><rect width="1200" height="650" rx="22" fill="url(#bg)"/><rect width="1200" height="650" rx="22" fill="url(#grid)" opacity=".62"/><rect x="1" y="1" width="1198" height="648" rx="21" fill="none" stroke="#22304a"/><text x="34" y="44" fill="#38bdf8" font-size="17" font-weight="700" text-anchor="start">ENGINEERING TELEMETRY // ROLLING 12 MONTHS</text><text x="1166" y="44" fill="#8da0bd" font-size="13" font-weight="400" text-anchor="end">AUTO REFRESH · 10 MIN CHECK</text><rect x="34" y="70" width="213" height="108" rx="14" fill="#0d1424" stroke="#22304a"/><text x="52" y="99" fill="#8da0bd" font-size="12" font-weight="700" text-anchor="start">PUBLIC REPOS</text><text x="52" y="142" fill="#e5edf9" font-size="31" font-weight="700" text-anchor="start">30</text><text x="52" y="164" fill="#8da0bd" font-size="11" font-weight="400" text-anchor="start">all visible repositories</text><rect x="265" y="70" width="213" height="108" rx="14" fill="#0d1424" stroke="#22304a"/><text x="283" y="99" fill="#8da0bd" font-size="12" font-weight="700" text-anchor="start">STARS EARNED</text><text x="283" y="142" fill="#e5edf9" font-size="31" font-weight="700" text-anchor="start">88</text><text x="283" y="164" fill="#8da0bd" font-size="11" font-weight="400" text-anchor="start">curated original work</text><rect x="496" y="70" width="213" height="108" rx="14" fill="#0d1424" stroke="#22304a"/><text x="514" y="99" fill="#8da0bd" font-size="12" font-weight="700" text-anchor="start">FOLLOWERS</text><text x="514" y="142" fill="#e5edf9" font-size="31" font-weight="700" text-anchor="start">4</text><text x="514" y="164" fill="#8da0bd" font-size="11" font-weight="400" text-anchor="start">GitHub network</text><rect x="727" y="70" width="213" height="108" rx="14" fill="#0d1424" stroke="#22304a"/><text x="745" y="99" fill="#8da0bd" font-size="12" font-weight="700" text-anchor="start">CONTRIBUTIONS</text><text x="745" y="142" fill="#e5edf9" font-size="31" font-weight="700" text-anchor="start">308</text><text x="745" y="164" fill="#8da0bd" font-size="11" font-weight="400" text-anchor="start">rolling 12 months</text><rect x="958" y="70" width="213" height="108" rx="14" fill="#0d1424" stroke="#22304a"/><text x="976" y="99" fill="#8da0bd" font-size="12" font-weight="700" text-anchor="start">CURRENT STREAK</text><text x="976" y="142" fill="#e5edf9" font-size="31" font-weight="700" text-anchor="start">7</text><text x="976" y="164" fill="#8da0bd" font-size="11" font-weight="400" text-anchor="start">longest 7 days</text><rect x="34" y="202" width="455" height="414" rx="16" fill="#0d1424" stroke="#22304a"/><text x="56" y="236" fill="#e5edf9" font-size="14" font-weight="700" text-anchor="start">PROFILE CODEBASE</text><text x="56" y="257" fill="#8da0bd" font-size="11" font-weight="400" text-anchor="start">curated language share by repository bytes</text><path d="M 176.00 326.00 A 91 91 0 1 1 87.40 437.74 L 118.55 430.45 A 59 59 0 1 0 176.00 358.00 Z" fill="#38bdf8"/><path d="M 87.40 437.74 A 91 91 0 0 1 88.28 392.80 L 119.12 401.31 A 59 59 0 0 0 118.55 430.45 Z" fill="#a78bfa"/><path d="M 88.28 392.80 A 91 91 0 0 1 104.07 361.26 L 129.36 380.86 A 59 59 0 0 0 119.12 401.31 Z" fill="#34d399"/><path d="M 104.07 361.26 A 91 91 0 0 1 118.02 346.86 L 138.41 371.52 A 59 59 0 0 0 129.36 380.86 Z" fill="#fb923c"/><path d="M 118.02 346.86 A 91 91 0 0 1 133.67 336.45 L 148.55 364.77 A 59 59 0 0 0 138.41 371.52 Z" fill="#f472b6"/><path d="M 133.67 336.45 A 91 91 0 0 1 176.00 326.00 L 176.00 358.00 A 59 59 0 0 0 148.55 364.77 Z" fill="#64748b"/><text x="176" y="415" fill="#e5edf9" font-size="27" font-weight="700" text-anchor="middle">6</text><text x="176" y="438" fill="#8da0bd" font-size="10" font-weight="700" text-anchor="middle">LANG GROUPS</text><rect x="299" y="296" width="10" height="10" rx="2" fill="#38bdf8"/><text x="319" y="305" fill="#e5edf9" font-size="13" font-weight="700" text-anchor="start">Go</text><text x="467" y="305" fill="#8da0bd" font-size="13" font-weight="400" text-anchor="end">71.3%</text><rect x="299" y="339" width="10" height="10" rx="2" fill="#a78bfa"/><text x="319" y="348" fill="#e5edf9" font-size="13" font-weight="700" text-anchor="start">Vue</text><text x="467" y="348" fill="#8da0bd" font-size="13" font-weight="400" text-anchor="end">7.9%</text><rect x="299" y="382" width="10" height="10" rx="2" fill="#34d399"/><text x="319" y="391" fill="#e5edf9" font-size="13" font-weight="700" text-anchor="start">Go Template</text><text x="467" y="391" fill="#8da0bd" font-size="13" font-weight="400" text-anchor="end">6.2%</text><rect x="299" y="425" width="10" height="10" rx="2" fill="#fb923c"/><text x="319" y="434" fill="#e5edf9" font-size="13" font-weight="700" text-anchor="start">CSS</text><text x="467" y="434" fill="#8da0bd" font-size="13" font-weight="400" text-anchor="end">3.5%</text><rect x="299" y="468" width="10" height="10" rx="2" fill="#f472b6"/><text x="319" y="477" fill="#e5edf9" font-size="13" font-weight="700" text-anchor="start">TypeScript</text><text x="467" y="477" fill="#8da0bd" font-size="13" font-weight="400" text-anchor="end">3.3%</text><rect x="299" y="511" width="10" height="10" rx="2" fill="#64748b"/><text x="319" y="520" fill="#e5edf9" font-size="13" font-weight="700" text-anchor="start">Other</text><text x="467" y="520" fill="#8da0bd" font-size="13" font-weight="400" text-anchor="end">7.7%</text><rect x="510" y="202" width="656" height="255" rx="16" fill="#0d1424" stroke="#22304a"/><text x="532" y="236" fill="#e5edf9" font-size="14" font-weight="700" text-anchor="start">CONTRIBUTION PULSE</text><text x="532" y="257" fill="#8da0bd" font-size="11" font-weight="400" text-anchor="start">contributions grouped by month</text><rect x="534.0" y="417.0" width="43.3" height="2.0" rx="4" fill="url(#signal)" opacity="0.55"/><text x="555.6666666666666" y="439" fill="#8da0bd" font-size="10" font-weight="400" text-anchor="middle">08</text><rect x="585.3" y="417.0" width="43.3" height="2.0" rx="4" fill="url(#signal)" opacity="0.56"/><text x="607.0" y="439" fill="#8da0bd" font-size="10" font-weight="400" text-anchor="middle">09</text><rect x="636.7" y="417.0" width="43.3" height="2.0" rx="4" fill="url(#signal)" opacity="0.55"/><text x="658.3333333333333" y="439" fill="#8da0bd" font-size="10" font-weight="400" text-anchor="middle">10</text><rect x="688.0" y="417.0" width="43.3" height="2.0" rx="4" fill="url(#signal)" opacity="0.55"/><text x="709.6666666666666" y="439" fill="#8da0bd" font-size="10" font-weight="400" text-anchor="middle">11</text><rect x="739.3" y="417.0" width="43.3" height="2.0" rx="4" fill="url(#signal)" opacity="0.55"/><text x="761.0" y="439" fill="#8da0bd" font-size="10" font-weight="400" text-anchor="middle">12</text><rect x="790.7" y="417.0" width="43.3" height="2.0" rx="4" fill="url(#signal)" opacity="0.55"/><text x="812.3333333333334" y="439" fill="#8da0bd" font-size="10" font-weight="400" text-anchor="middle">01</text><rect x="842.0" y="417.0" width="43.3" height="2.0" rx="4" fill="url(#signal)" opacity="0.55"/><text x="863.6666666666666" y="439" fill="#8da0bd" font-size="10" font-weight="400" text-anchor="middle">02</text><rect x="893.3" y="415.2" width="43.3" height="3.8" rx="4" fill="url(#signal)" opacity="0.56"/><text x="915.0" y="439" fill="#8da0bd" font-size="10" font-weight="400" text-anchor="middle">03</text><rect x="944.7" y="350.0" width="43.3" height="69.0" rx="4" fill="url(#signal)" opacity="0.78"/><text x="966.3333333333334" y="439" fill="#8da0bd" font-size="10" font-weight="400" text-anchor="middle">04</text><rect x="996.0" y="396.8" width="43.3" height="22.2" rx="4" fill="url(#signal)" opacity="0.62"/><text x="1017.6666666666666" y="439" fill="#8da0bd" font-size="10" font-weight="400" text-anchor="middle">05</text><rect x="1047.3" y="415.9" width="43.3" height="3.1" rx="4" fill="url(#signal)" opacity="0.56"/><text x="1069.0000000000002" y="439" fill="#8da0bd" font-size="10" font-weight="400" text-anchor="middle">06</text><rect x="1098.7" y="284.0" width="43.3" height="135.0" rx="4" fill="url(#signal)" opacity="1.00"/><text x="1120.3333333333335" y="439" fill="#8da0bd" font-size="10" font-weight="400" text-anchor="middle">07</text><text x="1120.3333333333335" y="277.0" fill="#e5edf9" font-size="10" font-weight="700" text-anchor="middle">176</text><rect x="510" y="477" width="656" height="139" rx="16" fill="#0d1424" stroke="#22304a"/><text x="532" y="508" fill="#e5edf9" font-size="14" font-weight="700" text-anchor="start">CONTRIBUTION MIX</text><text x="532" y="539" fill="#8da0bd" font-size="10" font-weight="700" text-anchor="start">COMMITS</text><rect x="650" y="528" width="150" height="11" rx="5.5" fill="#101a2f"/><rect x="650" y="528" width="150.0" height="11" rx="5.5" fill="#38bdf8"/><text x="830" y="539" fill="#e5edf9" font-size="11" font-weight="700" text-anchor="end">125</text><text x="849" y="539" fill="#8da0bd" font-size="10" font-weight="700" text-anchor="start">PULL REQUESTS</text><rect x="967" y="528" width="150" height="11" rx="5.5" fill="#101a2f"/><rect x="967" y="528" width="102.0" height="11" rx="5.5" fill="#a78bfa"/><text x="1147" y="539" fill="#e5edf9" font-size="11" font-weight="700" text-anchor="end">85</text><text x="532" y="578" fill="#8da0bd" font-size="10" font-weight="700" text-anchor="start">ISSUES</text><rect x="650" y="567" width="150" height="11" rx="5.5" fill="#101a2f"/><rect x="650" y="567" width="78.0" height="11" rx="5.5" fill="#fb923c"/><text x="830" y="578" fill="#e5edf9" font-size="11" font-weight="700" text-anchor="end">65</text><text x="849" y="578" fill="#8da0bd" font-size="10" font-weight="700" text-anchor="start">REVIEWS</text><rect x="967" y="567" width="150" height="11" rx="5.5" fill="#101a2f"/><rect x="967" y="567" width="3.0" height="11" rx="5.5" fill="#34d399"/><text x="1147" y="578" fill="#e5edf9" font-size="11" font-weight="700" text-anchor="end">2</text></svg>