<svg xmlns="http://www.w3.org/2000/svg" width="1200" height="650" viewBox="0 0 1200 650" role="img" aria-labelledby="title desc"><title id="title">ryan-wong-coder engineering telemetry</title><desc id="desc">Public repository, star, follower, annual contribution, language and monthly activity data generated from GitHub.</desc><defs><linearGradient id="bg" x1="0" y1="0" x2="1" y2="1"><stop stop-color="#f8fbff"/><stop offset="1" stop-color="#eff6ff"/></linearGradient><linearGradient id="signal" x1="0" y1="0" x2="1" y2="0"><stop stop-color="#0284c7"/><stop offset=".52" stop-color="#7c3aed"/><stop offset="1" stop-color="#db2777"/></linearGradient><pattern id="grid" width="28" height="28" patternUnits="userSpaceOnUse"><path d="M 28 0 L 0 0 0 28" fill="none" stroke="#e8eef7" stroke-width="1"/></pattern><style>text{font-family:ui-monospace,SFMono-Regular,Menlo,Monaco,Consolas,"Liberation Mono",monospace}</style></defs><rect width="1200" height="650" rx="22" fill="url(#bg)"/><rect width="1200" height="650" rx="22" fill="url(#grid)" opacity=".62"/><rect x="1" y="1" width="1198" height="648" rx="21" fill="none" stroke="#d8e2f1"/><text x="34" y="44" fill="#0284c7" font-size="17" font-weight="700" text-anchor="start">ENGINEERING TELEMETRY // ROLLING 12 MONTHS</text><text x="1166" y="44" fill="#60708a" font-size="13" font-weight="400" text-anchor="end">AUTO REFRESH · 10 MIN CHECK</text><rect x="34" y="70" width="213" height="108" rx="14" fill="#ffffff" stroke="#d8e2f1"/><text x="52" y="99" fill="#60708a" font-size="12" font-weight="700" text-anchor="start">PUBLIC REPOS</text><text x="52" y="142" fill="#172033" font-size="31" font-weight="700" text-anchor="start">33</text><text x="52" y="164" fill="#60708a" font-size="11" font-weight="400" text-anchor="start">all visible repositories</text><rect x="265" y="70" width="213" height="108" rx="14" fill="#ffffff" stroke="#d8e2f1"/><text x="283" y="99" fill="#60708a" font-size="12" font-weight="700" text-anchor="start">STARS EARNED</text><text x="283" y="142" fill="#172033" font-size="31" font-weight="700" text-anchor="start">89</text><text x="283" y="164" fill="#60708a" font-size="11" font-weight="400" text-anchor="start">curated original work</text><rect x="496" y="70" width="213" height="108" rx="14" fill="#ffffff" stroke="#d8e2f1"/><text x="514" y="99" fill="#60708a" font-size="12" font-weight="700" text-anchor="start">FOLLOWERS</text><text x="514" y="142" fill="#172033" font-size="31" font-weight="700" text-anchor="start">4</text><text x="514" y="164" fill="#60708a" font-size="11" font-weight="400" text-anchor="start">GitHub network</text><rect x="727" y="70" width="213" height="108" rx="14" fill="#ffffff" stroke="#d8e2f1"/><text x="745" y="99" fill="#60708a" font-size="12" font-weight="700" text-anchor="start">CONTRIBUTIONS</text><text x="745" y="142" fill="#172033" font-size="31" font-weight="700" text-anchor="start">594</text><text x="745" y="164" fill="#60708a" font-size="11" font-weight="400" text-anchor="start">rolling 12 months</text><rect x="958" y="70" width="213" height="108" rx="14" fill="#ffffff" stroke="#d8e2f1"/><text x="976" y="99" fill="#60708a" font-size="12" font-weight="700" text-anchor="start">CURRENT STREAK</text><text x="976" y="142" fill="#172033" font-size="31" font-weight="700" text-anchor="start">9</text><text x="976" y="164" fill="#60708a" font-size="11" font-weight="400" text-anchor="start">longest 9 days</text><rect x="34" y="202" width="455" height="414" rx="16" fill="#ffffff" stroke="#d8e2f1"/><text x="56" y="236" fill="#172033" font-size="14" font-weight="700" text-anchor="start">PROFILE CODEBASE</text><text x="56" y="257" fill="#60708a" font-size="11" font-weight="400" text-anchor="start">curated language share by repository bytes</text><path d="M 176.00 326.00 A 91 91 0 1 1 89.09 443.98 L 119.65 434.49 A 59 59 0 1 0 176.00 358.00 Z" fill="#0284c7"/><path d="M 89.09 443.98 A 91 91 0 0 1 88.89 390.69 L 119.52 399.94 A 59 59 0 0 0 119.65 434.49 Z" fill="#7c3aed"/><path d="M 88.89 390.69 A 91 91 0 0 1 105.13 359.92 L 130.05 379.99 A 59 59 0 0 0 119.52 399.94 Z" fill="#059669"/><path d="M 105.13 359.92 A 91 91 0 0 1 124.92 341.69 L 142.88 368.17 A 59 59 0 0 0 130.05 379.99 Z" fill="#ea580c"/><path d="M 124.92 341.69 A 91 91 0 0 1 141.03 332.99 L 153.33 362.53 A 59 59 0 0 0 142.88 368.17 Z" fill="#db2777"/><path d="M 141.03 332.99 A 91 91 0 0 1 176.00 326.00 L 176.00 358.00 A 59 59 0 0 0 153.33 362.53 Z" fill="#64748b"/><text x="176" y="415" fill="#172033" font-size="27" font-weight="700" text-anchor="middle">6</text><text x="176" y="438" fill="#60708a" font-size="10" font-weight="700" text-anchor="middle">LANG GROUPS</text><rect x="299" y="296" width="10" height="10" rx="2" fill="#0284c7"/><text x="319" y="305" fill="#172033" font-size="13" font-weight="700" text-anchor="start">Go</text><text x="467" y="305" fill="#60708a" font-size="13" font-weight="400" text-anchor="end">70.2%</text><rect x="299" y="339" width="10" height="10" rx="2" fill="#7c3aed"/><text x="319" y="348" fill="#172033" font-size="13" font-weight="700" text-anchor="start">TypeScript</text><text x="467" y="348" fill="#60708a" font-size="13" font-weight="400" text-anchor="end">9.5%</text><rect x="299" y="382" width="10" height="10" rx="2" fill="#059669"/><text x="319" y="391" fill="#172033" font-size="13" font-weight="700" text-anchor="start">Vue</text><text x="467" y="391" fill="#60708a" font-size="13" font-weight="400" text-anchor="end">6.1%</text><rect x="299" y="425" width="10" height="10" rx="2" fill="#ea580c"/><text x="319" y="434" fill="#172033" font-size="13" font-weight="700" text-anchor="start">Go Template</text><text x="467" y="434" fill="#60708a" font-size="13" font-weight="400" text-anchor="end">4.7%</text><rect x="299" y="468" width="10" height="10" rx="2" fill="#db2777"/><text x="319" y="477" fill="#172033" font-size="13" font-weight="700" text-anchor="start">JavaScript</text><text x="467" y="477" fill="#60708a" font-size="13" font-weight="400" text-anchor="end">3.2%</text><rect x="299" y="511" width="10" height="10" rx="2" fill="#64748b"/><text x="319" y="520" fill="#172033" font-size="13" font-weight="700" text-anchor="start">Other</text><text x="467" y="520" fill="#60708a" font-size="13" font-weight="400" text-anchor="end">6.3%</text><rect x="510" y="202" width="656" height="255" rx="16" fill="#ffffff" stroke="#d8e2f1"/><text x="532" y="236" fill="#172033" font-size="14" font-weight="700" text-anchor="start">CONTRIBUTION PULSE</text><text x="532" y="257" fill="#60708a" font-size="11" font-weight="400" text-anchor="start">contributions grouped by month</text><rect x="534.0" y="417.0" width="43.3" height="2.0" rx="4" fill="url(#signal)" opacity="0.55"/><text x="555.6666666666666" y="439" fill="#60708a" font-size="10" font-weight="400" text-anchor="middle">08</text><rect x="585.3" y="417.0" width="43.3" height="2.0" rx="4" fill="url(#signal)" opacity="0.55"/><text x="607.0" y="439" fill="#60708a" font-size="10" font-weight="400" text-anchor="middle">09</text><rect x="636.7" y="417.0" width="43.3" height="2.0" rx="4" fill="url(#signal)" opacity="0.55"/><text x="658.3333333333333" y="439" fill="#60708a" font-size="10" font-weight="400" text-anchor="middle">10</text><rect x="688.0" y="417.0" width="43.3" height="2.0" rx="4" fill="url(#signal)" opacity="0.55"/><text x="709.6666666666666" y="439" fill="#60708a" font-size="10" font-weight="400" text-anchor="middle">11</text><rect x="739.3" y="417.0" width="43.3" height="2.0" rx="4" fill="url(#signal)" opacity="0.55"/><text x="761.0" y="439" fill="#60708a" font-size="10" font-weight="400" text-anchor="middle">12</text><rect x="790.7" y="417.0" width="43.3" height="2.0" rx="4" fill="url(#signal)" opacity="0.55"/><text x="812.3333333333334" y="439" fill="#60708a" font-size="10" font-weight="400" text-anchor="middle">01</text><rect x="842.0" y="417.0" width="43.3" height="2.0" rx="4" fill="url(#signal)" opacity="0.55"/><text x="863.6666666666666" y="439" fill="#60708a" font-size="10" font-weight="400" text-anchor="middle">02</text><rect x="893.3" y="417.0" width="43.3" height="2.0" rx="4" fill="url(#signal)" opacity="0.55"/><text x="915.0" y="439" fill="#60708a" font-size="10" font-weight="400" text-anchor="middle">03</text><rect x="944.7" y="392.7" width="43.3" height="26.3" rx="4" fill="url(#signal)" opacity="0.64"/><text x="966.3333333333334" y="439" fill="#60708a" font-size="10" font-weight="400" text-anchor="middle">04</text><rect x="996.0" y="410.5" width="43.3" height="8.5" rx="4" fill="url(#signal)" opacity="0.58"/><text x="1017.6666666666666" y="439" fill="#60708a" font-size="10" font-weight="400" text-anchor="middle">05</text><rect x="1047.3" y="417.0" width="43.3" height="2.0" rx="4" fill="url(#signal)" opacity="0.55"/><text x="1069.0000000000002" y="439" fill="#60708a" font-size="10" font-weight="400" text-anchor="middle">06</text><rect x="1098.7" y="284.0" width="43.3" height="135.0" rx="4" fill="url(#signal)" opacity="1.00"/><text x="1120.3333333333335" y="439" fill="#60708a" font-size="10" font-weight="400" text-anchor="middle">07</text><text x="1120.3333333333335" y="277.0" fill="#172033" font-size="10" font-weight="700" text-anchor="middle">462</text><rect x="510" y="477" width="656" height="139" rx="16" fill="#ffffff" stroke="#d8e2f1"/><text x="532" y="508" fill="#172033" font-size="14" font-weight="700" text-anchor="start">CONTRIBUTION MIX</text><text x="532" y="539" fill="#60708a" font-size="10" font-weight="700" text-anchor="start">COMMITS</text><rect x="650" y="528" width="150" height="11" rx="5.5" fill="#eff6ff"/><rect x="650" y="528" width="150.0" height="11" rx="5.5" fill="#0284c7"/><text x="830" y="539" fill="#172033" font-size="11" font-weight="700" text-anchor="end">237</text><text x="849" y="539" fill="#60708a" font-size="10" font-weight="700" text-anchor="start">PULL REQUESTS</text><rect x="967" y="528" width="150" height="11" rx="5.5" fill="#eff6ff"/><rect x="967" y="528" width="110.1" height="11" rx="5.5" fill="#7c3aed"/><text x="1147" y="539" fill="#172033" font-size="11" font-weight="700" text-anchor="end">174</text><text x="532" y="578" fill="#60708a" font-size="10" font-weight="700" text-anchor="start">ISSUES</text><rect x="650" y="567" width="150" height="11" rx="5.5" fill="#eff6ff"/><rect x="650" y="567" width="92.4" height="11" rx="5.5" fill="#ea580c"/><text x="830" y="578" fill="#172033" font-size="11" font-weight="700" text-anchor="end">146</text><text x="849" y="578" fill="#60708a" font-size="10" font-weight="700" text-anchor="start">REVIEWS</text><rect x="967" y="567" width="150" height="11" rx="5.5" fill="#eff6ff"/><rect x="967" y="567" width="3.0" height="11" rx="5.5" fill="#059669"/><text x="1147" y="578" fill="#172033" font-size="11" font-weight="700" text-anchor="end">3</text></svg>