<svg xmlns="http://www.w3.org/2000/svg" width="1200" height="650" viewBox="0 0 1200 650" role="img" aria-labelledby="title desc"><title id="title">ryan-wong-coder engineering telemetry</title><desc id="desc">Public repository, star, follower, annual contribution, language and monthly activity data generated from GitHub.</desc><defs><linearGradient id="bg" x1="0" y1="0" x2="1" y2="1"><stop stop-color="#f8fbff"/><stop offset="1" stop-color="#eff6ff"/></linearGradient><linearGradient id="signal" x1="0" y1="0" x2="1" y2="0"><stop stop-color="#0284c7"/><stop offset=".52" stop-color="#7c3aed"/><stop offset="1" stop-color="#db2777"/></linearGradient><pattern id="grid" width="28" height="28" patternUnits="userSpaceOnUse"><path d="M 28 0 L 0 0 0 28" fill="none" stroke="#e8eef7" stroke-width="1"/></pattern><style>text{font-family:ui-monospace,SFMono-Regular,Menlo,Monaco,Consolas,"Liberation Mono",monospace}</style></defs><rect width="1200" height="650" rx="22" fill="url(#bg)"/><rect width="1200" height="650" rx="22" fill="url(#grid)" opacity=".62"/><rect x="1" y="1" width="1198" height="648" rx="21" fill="none" stroke="#d8e2f1"/><text x="34" y="44" fill="#0284c7" font-size="17" font-weight="700" text-anchor="start">ENGINEERING TELEMETRY // ROLLING 12 MONTHS</text><text x="1166" y="44" fill="#60708a" font-size="13" font-weight="400" text-anchor="end">AUTO REFRESH · 10 MIN CHECK</text><rect x="34" y="70" width="213" height="108" rx="14" fill="#ffffff" stroke="#d8e2f1"/><text x="52" y="99" fill="#60708a" font-size="12" font-weight="700" text-anchor="start">PUBLIC REPOS</text><text x="52" y="142" fill="#172033" font-size="31" font-weight="700" text-anchor="start">30</text><text x="52" y="164" fill="#60708a" font-size="11" font-weight="400" text-anchor="start">all visible repositories</text><rect x="265" y="70" width="213" height="108" rx="14" fill="#ffffff" stroke="#d8e2f1"/><text x="283" y="99" fill="#60708a" font-size="12" font-weight="700" text-anchor="start">STARS EARNED</text><text x="283" y="142" fill="#172033" font-size="31" font-weight="700" text-anchor="start">88</text><text x="283" y="164" fill="#60708a" font-size="11" font-weight="400" text-anchor="start">curated original work</text><rect x="496" y="70" width="213" height="108" rx="14" fill="#ffffff" stroke="#d8e2f1"/><text x="514" y="99" fill="#60708a" font-size="12" font-weight="700" text-anchor="start">FOLLOWERS</text><text x="514" y="142" fill="#172033" font-size="31" font-weight="700" text-anchor="start">4</text><text x="514" y="164" fill="#60708a" font-size="11" font-weight="400" text-anchor="start">GitHub network</text><rect x="727" y="70" width="213" height="108" rx="14" fill="#ffffff" stroke="#d8e2f1"/><text x="745" y="99" fill="#60708a" font-size="12" font-weight="700" text-anchor="start">CONTRIBUTIONS</text><text x="745" y="142" fill="#172033" font-size="31" font-weight="700" text-anchor="start">316</text><text x="745" y="164" fill="#60708a" font-size="11" font-weight="400" text-anchor="start">rolling 12 months</text><rect x="958" y="70" width="213" height="108" rx="14" fill="#ffffff" stroke="#d8e2f1"/><text x="976" y="99" fill="#60708a" font-size="12" font-weight="700" text-anchor="start">CURRENT STREAK</text><text x="976" y="142" fill="#172033" font-size="31" font-weight="700" text-anchor="start">8</text><text x="976" y="164" fill="#60708a" font-size="11" font-weight="400" text-anchor="start">longest 8 days</text><rect x="34" y="202" width="455" height="414" rx="16" fill="#ffffff" stroke="#d8e2f1"/><text x="56" y="236" fill="#172033" font-size="14" font-weight="700" text-anchor="start">PROFILE CODEBASE</text><text x="56" y="257" fill="#60708a" font-size="11" font-weight="400" text-anchor="start">curated language share by repository bytes</text><path d="M 176.00 326.00 A 91 91 0 1 1 88.02 440.26 L 118.96 432.08 A 59 59 0 1 0 176.00 358.00 Z" fill="#0284c7"/><path d="M 88.02 440.26 A 91 91 0 0 1 87.55 395.59 L 118.66 403.12 A 59 59 0 0 0 118.96 432.08 Z" fill="#7c3aed"/><path d="M 87.55 395.59 A 91 91 0 0 1 102.21 363.75 L 128.16 382.48 A 59 59 0 0 0 118.66 403.12 Z" fill="#059669"/><path d="M 102.21 363.75 A 91 91 0 0 1 116.33 348.29 L 137.32 372.45 A 59 59 0 0 0 128.16 382.48 Z" fill="#ea580c"/><path d="M 116.33 348.29 A 91 91 0 0 1 133.20 336.69 L 148.25 364.93 A 59 59 0 0 0 137.32 372.45 Z" fill="#db2777"/><path d="M 133.20 336.69 A 91 91 0 0 1 176.00 326.00 L 176.00 358.00 A 59 59 0 0 0 148.25 364.93 Z" fill="#64748b"/><text x="176" y="415" fill="#172033" font-size="27" font-weight="700" text-anchor="middle">6</text><text x="176" y="438" fill="#60708a" font-size="10" font-weight="700" text-anchor="middle">LANG GROUPS</text><rect x="299" y="296" width="10" height="10" rx="2" fill="#0284c7"/><text x="319" y="305" fill="#172033" font-size="13" font-weight="700" text-anchor="start">Go</text><text x="467" y="305" fill="#60708a" font-size="13" font-weight="400" text-anchor="end">70.9%</text><rect x="299" y="339" width="10" height="10" rx="2" fill="#7c3aed"/><text x="319" y="348" fill="#172033" font-size="13" font-weight="700" text-anchor="start">Vue</text><text x="467" y="348" fill="#60708a" font-size="13" font-weight="400" text-anchor="end">7.9%</text><rect x="299" y="382" width="10" height="10" rx="2" fill="#059669"/><text x="319" y="391" fill="#172033" font-size="13" font-weight="700" text-anchor="start">Go Template</text><text x="467" y="391" fill="#60708a" font-size="13" font-weight="400" text-anchor="end">6.2%</text><rect x="299" y="425" width="10" height="10" rx="2" fill="#ea580c"/><text x="319" y="434" fill="#172033" font-size="13" font-weight="700" text-anchor="start">CSS</text><text x="467" y="434" fill="#60708a" font-size="13" font-weight="400" text-anchor="end">3.7%</text><rect x="299" y="468" width="10" height="10" rx="2" fill="#db2777"/><text x="319" y="477" fill="#172033" font-size="13" font-weight="700" text-anchor="start">JavaScript</text><text x="467" y="477" fill="#60708a" font-size="13" font-weight="400" text-anchor="end">3.6%</text><rect x="299" y="511" width="10" height="10" rx="2" fill="#64748b"/><text x="319" y="520" fill="#172033" font-size="13" font-weight="700" text-anchor="start">Other</text><text x="467" y="520" fill="#60708a" font-size="13" font-weight="400" text-anchor="end">7.8%</text><rect x="510" y="202" width="656" height="255" rx="16" fill="#ffffff" stroke="#d8e2f1"/><text x="532" y="236" fill="#172033" font-size="14" font-weight="700" text-anchor="start">CONTRIBUTION PULSE</text><text x="532" y="257" fill="#60708a" font-size="11" font-weight="400" text-anchor="start">contributions grouped by month</text><rect x="534.0" y="417.0" width="43.3" height="2.0" rx="4" fill="url(#signal)" opacity="0.55"/><text x="555.6666666666666" y="439" fill="#60708a" font-size="10" font-weight="400" text-anchor="middle">08</text><rect x="585.3" y="417.0" width="43.3" height="2.0" rx="4" fill="url(#signal)" opacity="0.55"/><text x="607.0" y="439" fill="#60708a" font-size="10" font-weight="400" text-anchor="middle">09</text><rect x="636.7" y="417.0" width="43.3" height="2.0" rx="4" fill="url(#signal)" opacity="0.55"/><text x="658.3333333333333" y="439" fill="#60708a" font-size="10" font-weight="400" text-anchor="middle">10</text><rect x="688.0" y="417.0" width="43.3" height="2.0" rx="4" fill="url(#signal)" opacity="0.55"/><text x="709.6666666666666" y="439" fill="#60708a" font-size="10" font-weight="400" text-anchor="middle">11</text><rect x="739.3" y="417.0" width="43.3" height="2.0" rx="4" fill="url(#signal)" opacity="0.55"/><text x="761.0" y="439" fill="#60708a" font-size="10" font-weight="400" text-anchor="middle">12</text><rect x="790.7" y="417.0" width="43.3" height="2.0" rx="4" fill="url(#signal)" opacity="0.55"/><text x="812.3333333333334" y="439" fill="#60708a" font-size="10" font-weight="400" text-anchor="middle">01</text><rect x="842.0" y="417.0" width="43.3" height="2.0" rx="4" fill="url(#signal)" opacity="0.55"/><text x="863.6666666666666" y="439" fill="#60708a" font-size="10" font-weight="400" text-anchor="middle">02</text><rect x="893.3" y="415.3" width="43.3" height="3.7" rx="4" fill="url(#signal)" opacity="0.56"/><text x="915.0" y="439" fill="#60708a" font-size="10" font-weight="400" text-anchor="middle">03</text><rect x="944.7" y="353.0" width="43.3" height="66.0" rx="4" fill="url(#signal)" opacity="0.77"/><text x="966.3333333333334" y="439" fill="#60708a" font-size="10" font-weight="400" text-anchor="middle">04</text><rect x="996.0" y="397.7" width="43.3" height="21.3" rx="4" fill="url(#signal)" opacity="0.62"/><text x="1017.6666666666666" y="439" fill="#60708a" font-size="10" font-weight="400" text-anchor="middle">05</text><rect x="1047.3" y="416.1" width="43.3" height="2.9" rx="4" fill="url(#signal)" opacity="0.56"/><text x="1069.0000000000002" y="439" fill="#60708a" font-size="10" font-weight="400" text-anchor="middle">06</text><rect x="1098.7" y="284.0" width="43.3" height="135.0" rx="4" fill="url(#signal)" opacity="1.00"/><text x="1120.3333333333335" y="439" fill="#60708a" font-size="10" font-weight="400" text-anchor="middle">07</text><text x="1120.3333333333335" y="277.0" fill="#172033" font-size="10" font-weight="700" text-anchor="middle">184</text><rect x="510" y="477" width="656" height="139" rx="16" fill="#ffffff" stroke="#d8e2f1"/><text x="532" y="508" fill="#172033" font-size="14" font-weight="700" text-anchor="start">CONTRIBUTION MIX</text><text x="532" y="539" fill="#60708a" font-size="10" font-weight="700" text-anchor="start">COMMITS</text><rect x="650" y="528" width="150" height="11" rx="5.5" fill="#eff6ff"/><rect x="650" y="528" width="150.0" height="11" rx="5.5" fill="#0284c7"/><text x="830" y="539" fill="#172033" font-size="11" font-weight="700" text-anchor="end">129</text><text x="849" y="539" fill="#60708a" font-size="10" font-weight="700" text-anchor="start">PULL REQUESTS</text><rect x="967" y="528" width="150" height="11" rx="5.5" fill="#eff6ff"/><rect x="967" y="528" width="103.5" height="11" rx="5.5" fill="#7c3aed"/><text x="1147" y="539" fill="#172033" font-size="11" font-weight="700" text-anchor="end">89</text><text x="532" y="578" fill="#60708a" font-size="10" font-weight="700" text-anchor="start">ISSUES</text><rect x="650" y="567" width="150" height="11" rx="5.5" fill="#eff6ff"/><rect x="650" y="567" width="75.6" height="11" rx="5.5" fill="#ea580c"/><text x="830" y="578" fill="#172033" font-size="11" font-weight="700" text-anchor="end">65</text><text x="849" y="578" fill="#60708a" font-size="10" font-weight="700" text-anchor="start">REVIEWS</text><rect x="967" y="567" width="150" height="11" rx="5.5" fill="#eff6ff"/><rect x="967" y="567" width="3.0" height="11" rx="5.5" fill="#059669"/><text x="1147" y="578" fill="#172033" font-size="11" font-weight="700" text-anchor="end">2</text></svg>