<svg xmlns="http://www.w3.org/2000/svg" width="1200" height="300" viewBox="0 0 1200 300" role="img" aria-labelledby="title desc">
<title id="title">Ryan systems lab</title>
<desc id="desc">Backend, distributed systems and developer tools.</desc>
<defs>
  <linearGradient id="bg" x1="0" y1="0" x2="1" y2="1"><stop stop-color="#070b14"/><stop offset="1" stop-color="#101a2f"/></linearGradient>
  <linearGradient id="beam" x1="0" y1="0" x2="1" y2="0"><stop stop-color="#38bdf8"/><stop offset=".5" stop-color="#a78bfa"/><stop offset="1" stop-color="#f472b6"/></linearGradient>
  <pattern id="grid" width="32" height="32" patternUnits="userSpaceOnUse"><path d="M32 0H0V32" fill="none" stroke="#16223a" stroke-width="1"/></pattern>
  <filter id="glow"><feGaussianBlur stdDeviation="8" result="b"/><feMerge><feMergeNode in="b"/><feMergeNode in="SourceGraphic"/></feMerge></filter>
  <style>text{font-family:ui-monospace,SFMono-Regular,Menlo,Monaco,Consolas,"Liberation Mono",monospace}</style>
</defs>
<rect width="1200" height="300" rx="24" fill="url(#bg)"/>
<rect width="1200" height="300" rx="24" fill="url(#grid)" opacity=".76"/>
<rect x="1" y="1" width="1198" height="298" rx="23" fill="none" stroke="#22304a"/>
<circle cx="1010" cy="150" r="105" fill="none" stroke="#22304a"/>
<circle cx="1010" cy="150" r="72" fill="none" stroke="#22304a" stroke-dasharray="7 9"/>
<path d="M905 150H1115M1010 45V255" stroke="#22304a"/>
<path d="M926 181C951 181 950 111 975 111S999 209 1024 209s25-118 50-118 24 59 49 59" fill="none" stroke="url(#beam)" stroke-width="5" stroke-linecap="round" filter="url(#glow)"/>
<rect x="56" y="52" width="162" height="28" rx="14" fill="#0d1424" stroke="#22304a"/>
<circle cx="76" cy="66" r="5" fill="#34d399"/>
<text x="91" y="71" fill="#8da0bd" font-size="12" font-weight="700">SYSTEMS ONLINE</text>
<text x="56" y="137" fill="#e5edf9" font-size="50" font-weight="700">RYAN // SYSTEMS LAB</text>
<rect x="56" y="160" width="704" height="5" rx="2.5" fill="url(#beam)"/>
<text x="56" y="204" fill="#8da0bd" font-size="18">BACKEND · DISTRIBUTED SYSTEMS · DEVELOPER TOOLS</text>
<text x="56" y="244" fill="#38bdf8" font-size="14">JAVA</text><text x="112" y="244" fill="#22304a" font-size="14">/</text>
<text x="132" y="244" fill="#a78bfa" font-size="14">GO</text><text x="164" y="244" fill="#22304a" font-size="14">/</text>
<text x="184" y="244" fill="#34d399" font-size="14">RUST</text><text x="226" y="244" fill="#22304a" font-size="14">/</text>
<text x="246" y="244" fill="#fb923c" font-size="14">PYTHON</text>
</svg>